# xmcd
#
# Track frame offsets:
#	182
#	13287
#	27442
#	41825
#	55587
#	69340
#	81192
#	95542
#	108207
#	122645
#	136050
#	148795
#	161395
#	174815
#	187907
#	200360
#	213560
#	226860
#	239930
#	253317
#
# Disc length: 3553 seconds
#
# Revision: 0
# Processed by: cddbd v1.5.2PL0 Copyright (c) Steve Scherf et al.
# Submitted via: EasyCDDAExtractor 10.0.5.1
#
DISCID=160ddf14
DTITLE=Berthe Sylva - Coeur D'or
DYEAR=1900
DGENRE=
TTITLE0=Sous Les Toits De Paris
TTITLE1=Tu M'oublieras
TTITLE2=Tout Est Permis Quand On Rêve
TTITLE3=Ta Voix
TTITLE4=Si L'on Ne S'était Pas Connu
TTITLE5=Il Est Un Petit Nid
TTITLE6=Musette
TTITLE7=Une Larme
TTITLE8=Le Clown Et L'enfant
TTITLE9=Bonté De Gosse
TTITLE10=Les Tisseurs De Rêve
TTITLE11=Eperdument
TTITLE12=Amour Nouveau
TTITLE13=Bonhomme Noël
TTITLE14=Les Nuits
TTITLE15=J'attends Le Train Du Rêve
TTITLE16=Le Petit Ballon Rouge
TTITLE17=Désir
TTITLE18=Lorsque Je Vois Tes Yeux
TTITLE19=Rodeuse De Barrière
EXTD=
EXTT0=
EXTT1=
EXTT2=
EXTT3=
EXTT4=
EXTT5=
EXTT6=
EXTT7=
EXTT8=
EXTT9=
EXTT10=
EXTT11=
EXTT12=
EXTT13=
EXTT14=
EXTT15=
EXTT16=
EXTT17=
EXTT18=
EXTT19=
PLAYORDER=
